<svg xmlns="http://www.w3.org/2000/svg" aria-hidden="true"><symbol viewBox="0 0 24 24" id="airplay"><path d="M5 17H4a2 2 0 0 1-2-2V5a2 2 0 0 1 2-2h16a2 2 0 0 1 2 2v10a2 2 0 0 1-2 2h-1"/><polygon points="12 15 17 21 7 21 12 15"/></symbol><symbol viewBox="0 0 24 24" id="anchor"><circle cx="12" cy="5" r="3"/><line x1="12" y1="22" x2="12" y2="8"/><path d="M5 12H2a10 10 0 0 0 20 0h-3"/></symbol><symbol viewBox="0 0 24 24" id="aperture"><circle cx="12" cy="12" r="10"/><line x1="14.31" y1="8" x2="20.05" y2="17.94"/><line x1="9.69" y1="8" x2="21.17" y2="8"/><line x1="7.38" y1="12" x2="13.12" y2="2.06"/><line x1="9.69" y1="16" x2="3.95" y2="6.06"/><line x1="14.31" y1="16" x2="2.83" y2="16"/><line x1="16.62" y1="12" x2="10.88" y2="21.94"/></symbol></svg>